<?xml version="1.0" encoding="iso-8859-1"?>
<!-- Generator: Adobe Illustrator 19.0.0, SVG Export Plug-In . SVG Version: 6.00 Build 0)  -->
<svg xmlns="http://www.w3.org/2000/svg" xmlns:xlink="http://www.w3.org/1999/xlink" version="1.1" id="Capa_1" x="0px" y="0px" viewBox="0 0 110 110" style="enable-background:new 0 0 110 110;" xml:space="preserve" width="512px" height="512px">
<g id="_x0A_paper-plane">
	<g>
		<path style="fill-rule:evenodd;clip-rule:evenodd;" d="M108.949,12.061c-0.338-0.721-1.036-1.09-1.774-1.303    c-0.72-0.209-1.476-0.289-2.188-0.518c-1.526-0.489-2.949-0.354-4.352,0.442c-3.756,2.134-7.812,3.614-11.788,5.253    c-4.079,1.68-8.25,3.13-12.372,4.701c-9.558,3.641-19.216,6.974-29.073,9.723c-4.143,1.155-8.231,2.507-12.38,3.639    c-10.382,2.83-20.599,6.195-30.894,9.311c-1.639,0.497-2.783,1.589-3.805,2.85c-0.584,0.723-0.342,2.097,0.428,2.604    c0.534,0.353,1.126,0.627,1.714,0.886c0.983,0.436,2.024,0.756,2.972,1.254c3.825,2.008,7.866,3.499,11.868,5.087    c5.009,1.986,9.887,4.253,14.669,6.74c1.412,0.733,2.15,1.578,1.904,3.258c-0.312,2.128-0.515,4.276-0.643,6.424    c-0.323,5.376-0.576,10.758-0.916,17.267c0,1.461-0.003,4.049,0.001,6.637c0.001,0.43-0.001,0.865,0.057,1.29    c0.166,1.211,1.117,2.183,2.325,2.363c1.447,0.218,2.755,0.007,3.888-1.07c1.962-1.866,3.752-3.866,5.233-6.136    c1.536-2.353,3.304-4.508,5.309-6.492c2.296-2.273,4.466-4.674,6.693-7.017c0.519-0.546,0.993-1.165,1.602-1.582    c0.39-0.267,0.997-0.321,1.495-0.294c0.404,0.021,0.795,0.301,1.188,0.473c4.345,1.89,8.705,3.74,13.026,5.682    c3.833,1.721,7.717,3.393,11.122,5.885c1.703,1.245,3.661,1.793,5.514,2.621c1.048,0.469,2.082,0.143,2.979-0.662    c0.907-0.811,1.518-1.794,2.057-2.863c2.247-4.463,3.693-9.164,4.431-14.105c0.412-2.764,0.847-5.537,1.511-8.249    c1.05-4.295,1.668-8.657,2.361-13.011c0.676-4.245,1.207-8.514,2.377-12.675c0.816-2.897,1.437-5.851,2.135-8.78    c1.172-4.931,1.662-9.969,2.326-14.977C110.168,15.087,109.637,13.528,108.949,12.061z M19.534,47.627    c-0.024,0.303,0.009,0.748-0.119,1.142c-0.076,0.234-0.471,0.589-0.608,0.544c-1.807-0.594-3.594-1.249-5.384-1.896    c-0.083-0.03-0.206-0.186-0.2-0.193c0.13-0.161,0.252-0.404,0.422-0.447c1.639-0.418,3.279-0.819,4.93-1.184    c0.548-0.12,0.938,0.313,0.959,0.957C19.543,46.868,19.534,47.188,19.534,47.627z M27.773,44.629    c-0.54,2.334-0.478,4.699-0.441,7.064c0.002,0.203-0.036,0.441-0.146,0.605c-0.095,0.143-0.369,0.327-0.47,0.282    c-0.869-0.392-1.775-0.748-2.56-1.277c-0.835-0.566-1.251-1.453-1.268-2.495c-0.009-0.538-0.046-1.075-0.066-1.517    c0.15-3.173-0.067-2.676,2.733-3.534c0.406-0.124,0.847-0.146,1.274-0.186C27.316,43.522,27.892,44.116,27.773,44.629z     M34.067,55.784c-0.13,0.103-0.399,0.121-0.57,0.064c-1.532-0.497-2.604-1.422-2.889-3.102c-0.159-0.947-0.421-1.878-0.561-2.827    c-0.301-2.004-0.554-4.016-0.822-6.025c-0.075-0.577,0.212-1.073,0.761-1.235c1.024-0.301,2.054-0.579,3.087-0.842    c0.772-0.197,1.275,0.232,1.025,0.989c-0.093,2.665-0.202,5.331-0.271,7.997c-0.038,1.495-0.065,2.995,0.433,4.445    C34.31,55.395,34.197,55.68,34.067,55.784z M47.998,37.556c0.404-0.136,0.832-0.278,1.248-0.271    c0.251,0.006,0.694,0.273,0.713,0.457c0.098,0.964,0.014,1.946,0.135,2.904c0.105,0.84,0.318,1.688,0.628,2.475    c0.351,0.887,1.218,1.301,2.092,1.18c0.86-0.119,1.617-0.803,1.633-1.743c0.031-1.825-0.012-3.655-0.137-5.476    c-0.076-1.11-0.146-1.191,0.927-1.544c2.555-0.846,5.127-1.643,7.68-2.495c3.267-1.092,6.52-2.228,9.784-3.327    c0.377-0.127,0.783-0.163,1.18-0.232c-0.002-0.033,0.002-0.062-0.003-0.098c0.058-0.006,0.117-0.01,0.176-0.015    c0.108-0.112,0.216-0.226,0.341-0.317c0.068-0.05,0.196-0.019,0.298-0.023c-0.067,0.096-0.115,0.249-0.203,0.277    c-0.139,0.043-0.287,0.054-0.436,0.064c-0.033,0.034-0.066,0.068-0.1,0.101c-0.024,0.005-0.049,0.008-0.073,0.012    c0.025,0.597-0.475,0.856-0.86,1.136c-7.242,5.272-14.03,11.104-20.832,16.921c-0.572,0.488-1.215,0.9-1.781,1.396    c-1.801,1.575-2.289,1.989-3.188-0.888c-0.223-0.713-0.39-1.467-0.428-2.21c-0.109-2.154-0.165-4.312-0.19-6.469    C46.586,38.169,46.78,37.963,47.998,37.556z M37.815,42.082c-0.054-1.101,0.068-1.509,1.294-1.849    c1.03-0.284,2.032-0.665,3.056-0.968c0.747-0.222,1.225,0.225,0.99,1.019c-0.101,2.352-0.208,4.702-0.299,7.053    c-0.074,1.895,0.333,3.592,1.832,4.936c0.678,0.607,0.611,0.74-0.027,1.213c-1.031,0.766-2.062,1.533-3.119,2.262    c-0.648,0.447-1.031,0.309-1.669-0.287c-0.653-0.611-1.041-1.356-1.286-2.185c-0.121-0.405-0.189-0.837-0.215-1.261    C38.175,48.704,37.979,45.394,37.815,42.082z M59.345,64.602c-3.912,4.013-7.598,8.217-10.993,12.678    c-0.648,0.854-1.378,1.664-2.163,2.395c-2.614,2.428-5.005,5.041-6.976,8.024c-0.107,0.163-0.342,0.243-0.516,0.361    c-0.11-0.251-0.294-0.496-0.312-0.753c-0.038-0.535,0.022-1.076,0.024-1.614c0.006-1.401,0.002-2.802,0.002-4.36    c0.188-4.682,0.362-9.521,0.598-14.357c0.042-0.844,0.291-1.689,0.533-2.508c0.29-0.978,0.968-1.653,1.909-2.062    c3.702-1.606,6.891-3.932,9.704-6.812c1.272-1.305,2.584-2.515,4.448-3.081c0.965-0.294,1.76-1.198,2.592-1.875    c4.676-3.804,9.338-7.625,14.008-11.438c4.599-3.754,9.594-6.931,14.635-10.037c1.375-0.848,2.73-1.724,4.102-2.576    c0.049-0.03,0.188,0.017,0.237,0.071c0.057,0.065,0.114,0.202,0.083,0.26c-0.15,0.282-0.3,0.57-0.501,0.812    c-4.946,5.97-9.86,11.965-14.863,17.885c-2.502,2.959-5.196,5.754-7.75,8.671c-2.126,2.429-4.17,4.931-6.258,7.395    C61.053,62.665,60.245,63.678,59.345,64.602z M102.159,26.078c-1.208,4.797-2.511,9.571-3.606,14.394    c-0.763,3.352-1.365,6.75-1.82,10.156c-0.586,4.379-1.548,8.68-2.349,13.017c-0.214,1.162-0.435,2.325-0.708,3.476    c-0.296,1.246-0.498,2.503-1.376,3.571c-0.688,0.837-0.781,1.965-0.931,3.049c-0.339,2.447-0.781,4.881-1.202,7.317    c-0.091,0.525-0.233,1.049-0.407,1.554c-0.422,1.221-0.787,1.343-1.864,0.761c-2.65-1.435-5.292-2.883-7.976-4.252    c-1.242-0.635-2.582-1.069-3.855-1.639c-3.762-1.678-7.158-3.959-10.449-6.407c-0.686-0.509-0.709-0.888-0.149-1.614    c2.495-3.243,4.996-6.482,7.492-9.725c0.131-0.171,0.256-0.348,0.374-0.527c2.665-4.069,5.818-7.744,9.072-11.345    c0.715-0.792,1.41-1.677,1.828-2.642c0.662-1.529,1.704-2.727,2.775-3.938c4.279-4.847,8.541-9.711,12.821-14.557    c0.641-0.724,1.346-1.388,2.03-2.071c0.066-0.066,0.211-0.131,0.275-0.101c0.081,0.035,0.117,0.171,0.238,0.374    C102.315,25.248,102.262,25.669,102.159,26.078z" fill="#0B476D"/>
	</g>
</g>
<g>
</g>
<g>
</g>
<g>
</g>
<g>
</g>
<g>
</g>
<g>
</g>
<g>
</g>
<g>
</g>
<g>
</g>
<g>
</g>
<g>
</g>
<g>
</g>
<g>
</g>
<g>
</g>
<g>
</g>
</svg>
