<?xml version="1.0" encoding="iso-8859-1"?>
<!-- Generator: Adobe Illustrator 19.0.0, SVG Export Plug-In . SVG Version: 6.00 Build 0)  -->
<svg xmlns="http://www.w3.org/2000/svg" xmlns:xlink="http://www.w3.org/1999/xlink" version="1.1" id="Capa_1" x="0px" y="0px" viewBox="0 0 106.002 106.002" style="enable-background:new 0 0 106.002 106.002;" xml:space="preserve" width="512px" height="512px">
<g id="_x0A_pin_x0A_">
	<g>
		<path style="fill-rule:evenodd;clip-rule:evenodd;" d="M79.467,47.393c-0.739-2.218-1.666-2.919-3.99-2.978    c-1.365-0.035-2.732,0.084-4.1,0.102c-0.779,0.011-1.269-0.335-1.506-1.124c-0.883-2.941-1.792-5.875-2.579-8.842    c-0.845-3.185-1.61-6.393-2.315-9.611c-0.313-1.432,0.047-2.959-0.48-4.394c-0.05-0.137,0.32-0.56,0.566-0.646    c0.965-0.34,1.993-0.512,2.934-0.901c3.214-1.329,5.317-3.458,5.057-7.252c-0.068-1.019,0.087-2.051,0.06-3.075    c-0.054-1.995-0.704-3.79-1.97-5.346C70.64,2.71,70.07,2.145,69.598,1.506c-0.817-1.106-1.875-1.628-3.244-1.481    c-2.822,0.302-5.66,0.518-8.464,0.944c-4.28,0.65-8.562,1.187-12.899,1.155c-1.025-0.007-2.051,0.007-3.076,0.035    c-1.84,0.051-3.592,0.524-5.304,1.158c-2.032,0.753-3.768,1.72-3.188,4.394c0.065,0.304-0.162,0.659-0.191,0.997    c-0.119,1.357-0.22,2.713-0.315,4.071c-0.083,1.201,0.355,2.249,1.072,3.165c0.56,0.717,1.217,1.355,1.837,2.024    c1.226,1.321,2.679,2.072,4.543,1.934c0.79-0.059,1.593,0.018,2.389,0.059c0.516,0.026,0.837,0.429,0.723,0.915    c-0.259,1.107-0.543,2.208-0.823,3.309c-1.633,6.399-3.281,12.796-3.051,19.486c0.026,0.739-0.224,1.219-0.979,1.575    c-2.332,1.098-4.793,1.371-7.317,1.392c-0.91,0.007-1.838-0.083-2.726,0.066c-0.925,0.155-1.715,0.681-1.929,1.701    c-0.282,1.336-0.728,2.608-1.169,3.9c-1.373,4.014-0.875,7.854,1.643,11.354c0.828,1.153,1.895,1.888,3.299,2.261    c1.698,0.452,3.455,0.521,5.084,0.205c3.518-0.686,7.04-0.431,10.562-0.532c1.529-0.044,1.965,0.157,1.873,2.004    c-0.16,3.213,0.457,6.356,0.912,9.5c0.699,4.841,1.297,9.69,1.746,14.559c0.379,4.106,1.328,8.072,2.718,11.941    c0.151,0.423,0.329,0.857,0.593,1.215c0.655,0.888,1.544,1.362,2.67,1.128c1.086-0.227,1.885-0.899,2.125-1.979    c0.197-0.878,0.182-1.808,0.211-2.717c0.04-1.253-0.072-2.519,0.068-3.758c0.63-5.562,0.643-11.139,0.603-16.722    c0-4.787-0.009-9.574,0.008-14.361c0.003-0.889,0.374-1.257,1.226-1.281c1.822-0.051,3.652,0.008,5.469-0.119    c2.381-0.168,4.759-0.426,7.127-0.732c1.635-0.211,2.853-1.376,4.26-2.104c2.466-1.276,3.494-3.397,3.575-6.137    C81.347,52.992,80.405,50.197,79.467,47.393z M40.735,13.469c-0.117-0.149-0.305-0.29-0.324-0.452    c-0.014-0.105,0.217-0.241,0.337-0.363c0.082,0.199,0.185,0.394,0.231,0.602C40.991,13.304,40.821,13.396,40.735,13.469z     M38.311,58.521c-0.016,0.28-0.352,0.793-0.465,0.772c-0.41-0.071-0.812-0.287-1.163-0.528c-0.151-0.104-0.235-0.403-0.234-0.613    c0.013-1.92,0.044-3.842,0.094-5.762c0.006-0.209,0.108-0.488,0.265-0.604c0.248-0.184,0.6-0.388,0.865-0.342    c0.244,0.043,0.601,0.396,0.615,0.63c0.063,1.128,0.029,2.262,0.029,3.394h0.018C38.335,56.486,38.37,57.507,38.311,58.521z     M44.999,57.382c-0.011,0.503-0.314,0.784-0.778,0.972c-0.529,0.214-1.059,0.083-1.062-0.348    c-0.012-2.151-0.002-4.303,0.008-6.455c0-0.106,0.025-0.26,0.096-0.311c0.264-0.186,0.555-0.468,0.83-0.463    c0.271,0.006,0.758,0.3,0.771,0.493c0.074,1.126,0.036,2.258,0.036,3.389h0.105C45.003,55.566,45.017,56.474,44.999,57.382z     M44.989,13.425c-0.131,0.002-0.406-0.328-0.379-0.452c0.393-1.763,0.767-3.535,1.294-5.26c0.12-0.394,0.807-0.613,1.153-0.856    c0.863,0.118,1.57,0.11,2.199,0.326c1.125,0.386,2.276,0.431,3.369,0.16c2.352-0.58,4.742-0.523,7.124-0.654    c1.021-0.057,2.038-0.22,3.058-0.223c0.899-0.002,1.81,0.095,2.697,0.252c0.855,0.15,1.396,0.719,1.572,1.593    c0.178,0.891,0.404,1.776,0.516,2.676c0.203,1.628-0.25,2.254-1.873,2.711c-0.574,0.162-1.166,0.149-1.525-0.405    c-1.234-1.908-3.068-2.183-5.086-1.867c-3.814,0.596-7.616,1.259-11.43,1.854C46.795,13.417,45.886,13.416,44.989,13.425z     M47.583,42.284c-0.156-0.025-0.355-0.276-0.387-0.452c-0.033-0.188,0.047-0.476,0.184-0.597c0.335-0.295,0.723-0.532,1.105-0.767    c1.162-0.712,2.377-1.349,3.48-2.142c0.625-0.448,1.173-1.082,1.577-1.741c1.006-1.643-0.153-3.212-1.983-3.341    c-0.746-0.052-1.512,0.176-2.27,0.289c-0.009,0.022-0.016,0.046-0.024,0.067c-0.025,0.001-0.052-0.001-0.077-0.002    c-0.098,0.173-0.176,0.382-0.324,0.463c-0.145,0.08-0.386-0.014-0.584-0.031c0.105-0.138,0.188-0.346,0.326-0.395    c0.175-0.063,0.383-0.04,0.582-0.037c0.01-0.017,0.019-0.036,0.029-0.053c0.023-0.003,0.048-0.009,0.072-0.013    c0.105-0.277,0.164-0.609,0.363-0.782c0.857-0.745,1.789-1.405,2.649-2.149c0.858-0.742,1.694-1.517,2.479-2.335    c0.586-0.613,0.812-1.408,0.437-2.209c-0.366-0.78-1.11-1.146-1.935-1.209c-0.551-0.042-1.152,0.008-1.667,0.192    c-0.741,0.268-1.427,0.694-2.136,1.055c-0.598,0.304-0.883,0.182-0.867-0.4c0.024-0.909,0.055-1.819,0.123-2.726    c0.06-0.784,0.416-1.208,1.271-1.363c1.003-0.181,2.023-0.308,3.041-0.355c1.819-0.087,3.642-0.132,5.462-0.121    c0.748,0.004,1.654-0.872,2.176-0.01c0.358,0.591,0.17,1.521,0.189,2.303c0.015,0.567-0.016,1.139-0.052,1.706    c-0.337,5.166,0.298,10.215,1.792,15.164c0.328,1.086,0.625,2.183,0.912,3.281c0.111,0.429-0.272,0.904-0.744,0.933    c-3.629,0.213-7.26,0.427-10.891,0.613c-0.609,0.031-1.029-0.235-1.187-0.934c-0.396-1.743-0.427-1.743-1.788-1.847    C48.473,42.307,48.019,42.356,47.583,42.284z M50.635,57.859c-0.605,0.124-1.133-0.235-1.229-0.842    c-0.035-0.224-0.083-0.448-0.086-0.673c-0.012-0.795-0.004-1.59-0.004-2.385h-0.04c0-0.794-0.015-1.589,0.005-2.384    c0.014-0.586,0.477-0.961,1.134-0.976c0.513-0.011,0.853,0.206,0.983,0.718c0.084,0.329,0.287,0.673,0.244,0.985    c-0.195,1.485,0.078,2.922,0.334,4.368C52.084,57.277,51.628,57.656,50.635,57.859z M55.239,73.79    c-0.062,0.77-0.346,1.522-0.55,2.279c-0.022,0.083-0.165,0.154-0.266,0.188c-0.046,0.015-0.171-0.067-0.185-0.123    c-0.722-3.178-1.451-6.356-2.132-9.544c-0.1-0.467,0.221-0.855,0.747-0.941c0.332-0.055,0.67-0.098,1.005-0.098    c0.895,0.001,1.333,0.338,1.358,1.131c0.039,1.239,0.01,2.481,0.01,3.723h0.037C55.264,71.534,55.333,72.669,55.239,73.79z     M72.506,56.812c-5.208,0.086-10.414,0.287-15.621,0.439c0.002,0.054,0.003,0.107,0.004,0.16c-0.678,0-1.359,0.025-2.035-0.02    c-0.149-0.01-0.371-0.247-0.403-0.41c-0.04-0.203,0.096-0.436,0.134-0.658c0.287-1.69,0.335-3.384-0.025-5.068    c-0.367-1.717-0.378-1.769,1.068-1.758c1.35,0.009,2.699,0.149,4.05,0.229c0.903,0.055,1.807,0.147,2.71,0.146    c3.507-0.004,7.014-0.042,10.52-0.062c1.1-0.006,1.367,0.18,1.681,1.252c0.253,0.866,0.581,1.743,0.634,2.63    C75.411,56.968,75.411,56.763,72.506,56.812z" fill="#0B476D"/>
	</g>
</g>
<g>
</g>
<g>
</g>
<g>
</g>
<g>
</g>
<g>
</g>
<g>
</g>
<g>
</g>
<g>
</g>
<g>
</g>
<g>
</g>
<g>
</g>
<g>
</g>
<g>
</g>
<g>
</g>
<g>
</g>
</svg>
